<?xml version="1.0" encoding="UTF-8" standalone="no"?>
<!DOCTYPE svg PUBLIC "-//W3C//DTD SVG 1.1//EN"
 "http://www.w3.org/Graphics/SVG/1.1/DTD/svg11.dtd">
<!-- Generated by graphviz version 2.40.1 (20161225.0304)
 -->
<!-- Pages: 1 -->
<svg width="248pt" height="250pt"
 viewBox="0.00 0.00 247.66 250.29" xmlns="http://www.w3.org/2000/svg" xmlns:xlink="http://www.w3.org/1999/xlink">
<g id="graph0" class="graph" transform="scale(1 1) rotate(0) translate(4 246.29)">
<polygon fill="#ffffff" stroke="transparent" points="-4,4 -4,-246.29 243.66,-246.29 243.66,4 -4,4"/>
<text text-anchor="middle" x="119.83" y="-3.8" font-family="Times,serif" font-size="14.00" fill="#000000">example&#45;1</text>
<!-- 1 -->
<g id="node1" class="node">
<title>1</title>
<ellipse fill="none" stroke="#000000" cx="221.66" cy="-224.29" rx="18" ry="18"/>
<text text-anchor="middle" x="221.66" y="-220.59" font-family="Times,serif" font-size="14.00" fill="#000000">1</text>
</g>
<!-- 2 -->
<g id="node2" class="node">
<title>2</title>
<ellipse fill="none" stroke="#000000" cx="18" cy="-199.89" rx="18" ry="18"/>
<text text-anchor="middle" x="18" y="-196.19" font-family="Times,serif" font-size="14.00" fill="#000000">2</text>
</g>
<!-- 1&#45;&#45;2 -->
<g id="edge1" class="edge">
<title>1&#45;&#45;2</title>
<path fill="none" stroke="#000000" d="M203.59,-222.12C164.94,-217.49 74.646,-206.67 36.033,-202.05"/>
<text text-anchor="middle" x="114.81" y="-215.88" font-family="Times,serif" font-size="14.00" fill="#000000">1</text>
</g>
<!-- 3 -->
<g id="node3" class="node">
<title>3</title>
<ellipse fill="none" stroke="#000000" cx="141.12" cy="-37" rx="18" ry="18"/>
<text text-anchor="middle" x="141.12" y="-33.3" font-family="Times,serif" font-size="14.00" fill="#000000">3</text>
</g>
<!-- 1&#45;&#45;3 -->
<g id="edge2" class="edge">
<title>1&#45;&#45;3</title>
<path fill="none" stroke="#000000" d="M214.51,-207.67C199.23,-172.13 163.52,-89.091 148.25,-53.583"/>
<text text-anchor="middle" x="176.38" y="-134.42" font-family="Times,serif" font-size="14.00" fill="#000000">2</text>
</g>
<!-- 2&#45;&#45;3 -->
<g id="edge3" class="edge">
<title>2&#45;&#45;3</title>
<path fill="none" stroke="#000000" d="M28.926,-185.43C52.231,-154.6 106.6,-82.668 130.04,-51.657"/>
<text text-anchor="middle" x="74.483" y="-122.34" font-family="Times,serif" font-size="14.00" fill="#000000">3</text>
</g>
</g>
</svg>
