<?xml version="1.0" encoding="UTF-8" standalone="no"?>
<!DOCTYPE svg PUBLIC "-//W3C//DTD SVG 1.1//EN"
 "http://www.w3.org/Graphics/SVG/1.1/DTD/svg11.dtd">
<!-- Generated by graphviz version 2.40.1 (20161225.0304)
 -->
<!-- Pages: 1 -->
<svg width="396pt" height="281pt"
 viewBox="0.00 0.00 395.63 280.95" xmlns="http://www.w3.org/2000/svg" xmlns:xlink="http://www.w3.org/1999/xlink">
<g id="graph0" class="graph" transform="scale(1 1) rotate(0) translate(4 276.95)">
<polygon fill="#ffffff" stroke="transparent" points="-4,4 -4,-276.95 391.63,-276.95 391.63,4 -4,4"/>
<text text-anchor="middle" x="193.82" y="-3.8" font-family="Times,serif" font-size="14.00" fill="#000000">example&#45;2</text>
<!-- 1 -->
<g id="node1" class="node">
<title>1</title>
<ellipse fill="none" stroke="#000000" cx="18" cy="-254.95" rx="18" ry="18"/>
<text text-anchor="middle" x="18" y="-251.25" font-family="Times,serif" font-size="14.00" fill="#000000">1</text>
</g>
<!-- 2 -->
<g id="node2" class="node">
<title>2</title>
<ellipse fill="none" stroke="#000000" cx="48.86" cy="-113.26" rx="18" ry="18"/>
<text text-anchor="middle" x="48.86" y="-109.56" font-family="Times,serif" font-size="14.00" fill="#000000">2</text>
</g>
<!-- 1&#45;&#45;2 -->
<g id="edge1" class="edge">
<title>1&#45;&#45;2</title>
<path fill="none" stroke="#000000" d="M21.846,-237.29C27.76,-210.14 39.023,-158.43 44.965,-131.14"/>
<text text-anchor="middle" x="24.406" y="-188.02" font-family="Times,serif" font-size="14.00" fill="#000000">16</text>
</g>
<!-- 3 -->
<g id="node3" class="node">
<title>3</title>
<ellipse fill="none" stroke="#000000" cx="193.38" cy="-188.13" rx="18" ry="18"/>
<text text-anchor="middle" x="193.38" y="-184.43" font-family="Times,serif" font-size="14.00" fill="#000000">3</text>
</g>
<!-- 1&#45;&#45;3 -->
<g id="edge2" class="edge">
<title>1&#45;&#45;3</title>
<path fill="none" stroke="#000000" d="M35.136,-248.42C68.75,-235.61 142.97,-207.34 176.43,-194.59"/>
<text text-anchor="middle" x="96.285" y="-225.3" font-family="Times,serif" font-size="14.00" fill="#000000">13</text>
</g>
<!-- 2&#45;&#45;3 -->
<g id="edge3" class="edge">
<title>2&#45;&#45;3</title>
<path fill="none" stroke="#000000" d="M64.878,-121.56C92.658,-135.95 149.46,-165.38 177.29,-179.8"/>
<text text-anchor="middle" x="116.58" y="-154.48" font-family="Times,serif" font-size="14.00" fill="#000000">6</text>
</g>
<!-- 4 -->
<g id="node4" class="node">
<title>4</title>
<ellipse fill="none" stroke="#000000" cx="190.78" cy="-37" rx="18" ry="18"/>
<text text-anchor="middle" x="190.78" y="-33.3" font-family="Times,serif" font-size="14.00" fill="#000000">4</text>
</g>
<!-- 2&#45;&#45;4 -->
<g id="edge4" class="edge">
<title>2&#45;&#45;4</title>
<path fill="none" stroke="#000000" d="M64.864,-104.66C92.12,-90.015 147.25,-60.39 174.61,-45.686"/>
<text text-anchor="middle" x="114.74" y="-78.974" font-family="Times,serif" font-size="14.00" fill="#000000">7</text>
</g>
<!-- 3&#45;&#45;4 -->
<g id="edge5" class="edge">
<title>3&#45;&#45;4</title>
<path fill="none" stroke="#000000" d="M193.07,-169.9C192.57,-140.85 191.59,-84.383 191.09,-55.295"/>
<text text-anchor="middle" x="187.08" y="-116.4" font-family="Times,serif" font-size="14.00" fill="#000000">9</text>
</g>
<!-- 5 -->
<g id="node5" class="node">
<title>5</title>
<ellipse fill="none" stroke="#000000" cx="369.63" cy="-253.34" rx="18" ry="18"/>
<text text-anchor="middle" x="369.63" y="-249.64" font-family="Times,serif" font-size="14.00" fill="#000000">5</text>
</g>
<!-- 3&#45;&#45;5 -->
<g id="edge6" class="edge">
<title>3&#45;&#45;5</title>
<path fill="none" stroke="#000000" d="M210.28,-194.38C243.88,-206.81 318.75,-234.51 352.52,-247.01"/>
<text text-anchor="middle" x="271.9" y="-224.5" font-family="Times,serif" font-size="14.00" fill="#000000">11</text>
</g>
<!-- 6 -->
<g id="node6" class="node">
<title>6</title>
<ellipse fill="none" stroke="#000000" cx="335.57" cy="-111.67" rx="18" ry="18"/>
<text text-anchor="middle" x="335.57" y="-107.97" font-family="Times,serif" font-size="14.00" fill="#000000">6</text>
</g>
<!-- 3&#45;&#45;6 -->
<g id="edge7" class="edge">
<title>3&#45;&#45;6</title>
<path fill="none" stroke="#000000" d="M209.42,-179.51C236.73,-164.82 291.96,-135.12 319.38,-120.37"/>
<text text-anchor="middle" x="259.9" y="-153.74" font-family="Times,serif" font-size="14.00" fill="#000000">8</text>
</g>
<!-- 4&#45;&#45;6 -->
<g id="edge8" class="edge">
<title>4&#45;&#45;6</title>
<path fill="none" stroke="#000000" d="M206.83,-45.276C234.66,-59.628 291.57,-88.974 319.45,-103.35"/>
<text text-anchor="middle" x="254.14" y="-78.114" font-family="Times,serif" font-size="14.00" fill="#000000">10</text>
</g>
<!-- 5&#45;&#45;6 -->
<g id="edge9" class="edge">
<title>5&#45;&#45;6</title>
<path fill="none" stroke="#000000" d="M365.39,-235.68C358.86,-208.53 346.43,-156.83 339.87,-129.54"/>
<text text-anchor="middle" x="343.13" y="-186.41" font-family="Times,serif" font-size="14.00" fill="#000000">19</text>
</g>
</g>
</svg>
