<?xml version="1.0" encoding="UTF-8" standalone="no"?>
<!DOCTYPE svg PUBLIC "-//W3C//DTD SVG 1.1//EN"
 "http://www.w3.org/Graphics/SVG/1.1/DTD/svg11.dtd">
<!-- Generated by graphviz version 2.40.1 (20161225.0304)
 -->
<!-- Pages: 1 -->
<svg width="516pt" height="367pt"
 viewBox="0.00 0.00 515.97 366.71" xmlns="http://www.w3.org/2000/svg" xmlns:xlink="http://www.w3.org/1999/xlink">
<g id="graph0" class="graph" transform="scale(1 1) rotate(0) translate(4 362.71)">
<polygon fill="#ffffff" stroke="transparent" points="-4,4 -4,-362.71 511.97,-362.71 511.97,4 -4,4"/>
<text text-anchor="middle" x="253.99" y="-3.8" font-family="Times,serif" font-size="14.00" fill="#000000">examples/example&#45;2_mst</text>
<!-- 1 -->
<g id="node1" class="node">
<title>1</title>
<ellipse fill="none" stroke="#000000" cx="359.54" cy="-340.71" rx="18" ry="18"/>
<text text-anchor="middle" x="359.54" y="-337.01" font-family="Times,serif" font-size="14.00" fill="#000000">1</text>
</g>
<!-- 3 -->
<g id="node2" class="node">
<title>3</title>
<ellipse fill="none" stroke="#000000" cx="336.07" cy="-188.9" rx="18" ry="18"/>
<text text-anchor="middle" x="336.07" y="-185.2" font-family="Times,serif" font-size="14.00" fill="#000000">3</text>
</g>
<!-- 1&#45;&#45;3 -->
<g id="edge1" class="edge">
<title>1&#45;&#45;3</title>
<path fill="none" stroke="#000000" d="M356.75,-322.7C352.24,-293.48 343.36,-236.09 338.85,-206.89"/>
<text text-anchor="middle" x="338.3" y="-268.6" font-family="Times,serif" font-size="14.00" fill="#000000">13</text>
</g>
<!-- 5 -->
<g id="node3" class="node">
<title>5</title>
<ellipse fill="none" stroke="#000000" cx="489.97" cy="-188.45" rx="18" ry="18"/>
<text text-anchor="middle" x="489.97" y="-184.75" font-family="Times,serif" font-size="14.00" fill="#000000">5</text>
</g>
<!-- 3&#45;&#45;5 -->
<g id="edge2" class="edge">
<title>3&#45;&#45;5</title>
<path fill="none" stroke="#000000" d="M354.33,-188.85C383.95,-188.76 442.13,-188.59 471.74,-188.51"/>
<text text-anchor="middle" x="403.53" y="-192.48" font-family="Times,serif" font-size="14.00" fill="#000000">11</text>
</g>
<!-- 6 -->
<g id="node4" class="node">
<title>6</title>
<ellipse fill="none" stroke="#000000" cx="356.57" cy="-37" rx="18" ry="18"/>
<text text-anchor="middle" x="356.57" y="-33.3" font-family="Times,serif" font-size="14.00" fill="#000000">6</text>
</g>
<!-- 3&#45;&#45;6 -->
<g id="edge3" class="edge">
<title>3&#45;&#45;6</title>
<path fill="none" stroke="#000000" d="M338.5,-170.88C342.45,-141.64 350.2,-84.217 354.14,-54.998"/>
<text text-anchor="middle" x="341.82" y="-116.74" font-family="Times,serif" font-size="14.00" fill="#000000">8</text>
</g>
<!-- 2 -->
<g id="node5" class="node">
<title>2</title>
<ellipse fill="none" stroke="#000000" cx="164.4" cy="-189.44" rx="18" ry="18"/>
<text text-anchor="middle" x="164.4" y="-185.74" font-family="Times,serif" font-size="14.00" fill="#000000">2</text>
</g>
<!-- 2&#45;&#45;3 -->
<g id="edge4" class="edge">
<title>2&#45;&#45;3</title>
<path fill="none" stroke="#000000" d="M182.45,-189.39C215.42,-189.28 285.02,-189.06 318,-188.96"/>
<text text-anchor="middle" x="245.73" y="-192.97" font-family="Times,serif" font-size="14.00" fill="#000000">6</text>
</g>
<!-- 4 -->
<g id="node6" class="node">
<title>4</title>
<ellipse fill="none" stroke="#000000" cx="18" cy="-189.97" rx="18" ry="18"/>
<text text-anchor="middle" x="18" y="-186.27" font-family="Times,serif" font-size="14.00" fill="#000000">4</text>
</g>
<!-- 2&#45;&#45;4 -->
<g id="edge5" class="edge">
<title>2&#45;&#45;4</title>
<path fill="none" stroke="#000000" d="M146.16,-189.51C117.95,-189.61 64.084,-189.8 36.016,-189.9"/>
<text text-anchor="middle" x="86.086" y="-193.51" font-family="Times,serif" font-size="14.00" fill="#000000">7</text>
</g>
</g>
</svg>
