<?xml version="1.0" encoding="UTF-8" standalone="no"?>
<!DOCTYPE svg PUBLIC "-//W3C//DTD SVG 1.1//EN"
 "http://www.w3.org/Graphics/SVG/1.1/DTD/svg11.dtd">
<!-- Generated by graphviz version 2.40.1 (20161225.0304)
 -->
<!-- Pages: 1 -->
<svg width="319pt" height="338pt"
 viewBox="0.00 0.00 319.02 338.02" xmlns="http://www.w3.org/2000/svg" xmlns:xlink="http://www.w3.org/1999/xlink">
<g id="graph0" class="graph" transform="scale(1 1) rotate(0) translate(4 334.02)">
<polygon fill="#ffffff" stroke="transparent" points="-4,4 -4,-334.02 315.02,-334.02 315.02,4 -4,4"/>
<text text-anchor="middle" x="155.51" y="-3.8" font-family="Times,serif" font-size="14.00" fill="#000000">examples/03&#45;graph</text>
<!-- 0 -->
<g id="node1" class="node">
<title>0</title>
<ellipse fill="none" stroke="#000000" cx="58.276" cy="-77.276" rx="18" ry="18"/>
<text text-anchor="middle" x="58.276" y="-73.576" font-family="Times,serif" font-size="14.00" fill="#000000">0</text>
</g>
<!-- 2 -->
<g id="node2" class="node">
<title>2</title>
<ellipse fill="none" stroke="#000000" cx="58.276" cy="-271.74" rx="18" ry="18"/>
<text text-anchor="middle" x="58.276" y="-268.04" font-family="Times,serif" font-size="14.00" fill="#000000">2</text>
</g>
<!-- 0&#45;&gt;2 -->
<g id="edge1" class="edge">
<title>0&#45;&gt;2</title>
<path fill="none" stroke="#000000" d="M58.276,-95.571C58.276,-129.68 58.276,-203.19 58.276,-243.64"/>
<polygon fill="#000000" stroke="#000000" points="54.7761,-243.64 58.276,-253.64 61.7761,-243.64 54.7761,-243.64"/>
</g>
<!-- 3 -->
<g id="node3" class="node">
<title>3</title>
<ellipse fill="none" stroke="#000000" cx="155.51" cy="-37" rx="18" ry="18"/>
<text text-anchor="middle" x="155.51" y="-33.3" font-family="Times,serif" font-size="14.00" fill="#000000">3</text>
</g>
<!-- 0&#45;&gt;3 -->
<g id="edge2" class="edge">
<title>0&#45;&gt;3</title>
<path fill="none" stroke="#000000" d="M75.213,-70.26C90.131,-64.081 112.1,-54.981 129.29,-47.861"/>
<polygon fill="#000000" stroke="#000000" points="130.8701,-50.9949 138.77,-43.935 128.1917,-44.5276 130.8701,-50.9949"/>
</g>
<!-- 4 -->
<g id="node4" class="node">
<title>4</title>
<ellipse fill="none" stroke="#000000" cx="293.02" cy="-174.51" rx="18" ry="18"/>
<text text-anchor="middle" x="293.02" y="-170.81" font-family="Times,serif" font-size="14.00" fill="#000000">4</text>
</g>
<!-- 0&#45;&gt;4 -->
<g id="edge3" class="edge">
<title>0&#45;&gt;4</title>
<path fill="none" stroke="#000000" d="M75.158,-84.269C115.59,-101.02 218.23,-143.53 266.79,-163.65"/>
<polygon fill="#000000" stroke="#000000" points="265.7115,-166.9915 276.29,-167.58 268.3874,-160.5231 265.7115,-166.9915"/>
</g>
<!-- 2&#45;&gt;4 -->
<g id="edge4" class="edge">
<title>2&#45;&gt;4</title>
<path fill="none" stroke="#000000" d="M75.158,-264.75C115.59,-248 218.23,-205.49 266.79,-185.37"/>
<polygon fill="#000000" stroke="#000000" points="268.3874,-188.4969 276.29,-181.44 265.7115,-182.0285 268.3874,-188.4969"/>
</g>
<!-- 5 -->
<g id="node5" class="node">
<title>5</title>
<ellipse fill="none" stroke="#000000" cx="18" cy="-174.51" rx="18" ry="18"/>
<text text-anchor="middle" x="18" y="-170.81" font-family="Times,serif" font-size="14.00" fill="#000000">5</text>
</g>
<!-- 2&#45;&gt;5 -->
<g id="edge5" class="edge">
<title>2&#45;&gt;5</title>
<path fill="none" stroke="#000000" d="M51.26,-254.81C45.081,-239.89 35.981,-217.92 28.861,-200.73"/>
<polygon fill="#000000" stroke="#000000" points="31.9949,-199.1499 24.935,-191.25 25.5276,-201.8283 31.9949,-199.1499"/>
</g>
<!-- 6 -->
<g id="node6" class="node">
<title>6</title>
<ellipse fill="none" stroke="#000000" cx="155.51" cy="-312.02" rx="18" ry="18"/>
<text text-anchor="middle" x="155.51" y="-308.32" font-family="Times,serif" font-size="14.00" fill="#000000">6</text>
</g>
<!-- 2&#45;&gt;6 -->
<g id="edge6" class="edge">
<title>2&#45;&gt;6</title>
<path fill="none" stroke="#000000" d="M75.213,-278.76C90.131,-284.94 112.1,-294.04 129.29,-301.16"/>
<polygon fill="#000000" stroke="#000000" points="128.1914,-304.4931 138.77,-305.08 130.8663,-298.0243 128.1914,-304.4931"/>
</g>
<!-- 1 -->
<g id="node7" class="node">
<title>1</title>
<ellipse fill="none" stroke="#000000" cx="252.74" cy="-77.276" rx="18" ry="18"/>
<text text-anchor="middle" x="252.74" y="-73.576" font-family="Times,serif" font-size="14.00" fill="#000000">1</text>
</g>
<!-- 3&#45;&gt;1 -->
<g id="edge7" class="edge">
<title>3&#45;&gt;1</title>
<path fill="none" stroke="#000000" d="M172.45,-44.015C187.37,-50.195 209.33,-59.295 226.52,-66.414"/>
<polygon fill="#000000" stroke="#000000" points="225.4218,-69.7474 236,-70.341 228.1008,-63.2803 225.4218,-69.7474"/>
</g>
<!-- 4&#45;&gt;6 -->
<g id="edge8" class="edge">
<title>4&#45;&gt;6</title>
<path fill="none" stroke="#000000" d="M280.08,-187.45C256.02,-211.5 204.25,-263.28 175.6,-291.93"/>
<polygon fill="#000000" stroke="#000000" points="173.1062,-289.474 168.51,-299.02 178.056,-294.4238 173.1062,-289.474"/>
</g>
<!-- 7 -->
<g id="node8" class="node">
<title>7</title>
<ellipse fill="none" stroke="#000000" cx="252.74" cy="-271.74" rx="18" ry="18"/>
<text text-anchor="middle" x="252.74" y="-268.04" font-family="Times,serif" font-size="14.00" fill="#000000">7</text>
</g>
<!-- 4&#45;&gt;7 -->
<g id="edge9" class="edge">
<title>4&#45;&gt;7</title>
<path fill="none" stroke="#000000" d="M286,-191.45C279.82,-206.37 270.73,-228.33 263.61,-245.52"/>
<polygon fill="#000000" stroke="#000000" points="260.2764,-244.422 259.68,-255 266.7428,-247.1027 260.2764,-244.422"/>
</g>
<!-- 5&#45;&gt;3 -->
<g id="edge10" class="edge">
<title>5&#45;&gt;3</title>
<path fill="none" stroke="#000000" d="M30.937,-161.57C54.995,-137.51 106.77,-85.74 135.42,-57.092"/>
<polygon fill="#000000" stroke="#000000" points="137.9138,-59.548 142.51,-50.002 132.964,-54.5982 137.9138,-59.548"/>
</g>
<!-- 5&#45;&gt;6 -->
<g id="edge11" class="edge">
<title>5&#45;&gt;6</title>
<path fill="none" stroke="#000000" d="M27.56,-189.84C49.169,-216.05 101.51,-268.79 132.21,-295.67"/>
<polygon fill="#000000" stroke="#000000" points="129.9997,-298.385 139.88,-302.21 134.5415,-293.0584 129.9997,-298.385"/>
</g>
<!-- 6&#45;&gt;5 -->
<g id="edge12" class="edge">
<title>6&#45;&gt;5</title>
<path fill="none" stroke="#000000" d="M145.95,-296.69C124.34,-270.47 72,-217.74 41.301,-190.86"/>
<polygon fill="#000000" stroke="#000000" points="43.5054,-188.1399 33.627,-184.31 38.9609,-193.4643 43.5054,-188.1399"/>
</g>
<!-- 6&#45;&gt;7 -->
<g id="edge13" class="edge">
<title>6&#45;&gt;7</title>
<path fill="none" stroke="#000000" d="M172.45,-305C187.37,-298.82 209.33,-289.73 226.52,-282.61"/>
<polygon fill="#000000" stroke="#000000" points="228.1027,-285.7428 236,-278.68 225.422,-279.2764 228.1027,-285.7428"/>
</g>
<!-- 1&#45;&gt;2 -->
<g id="edge14" class="edge">
<title>1&#45;&gt;2</title>
<path fill="none" stroke="#000000" d="M239.98,-90.035C207.03,-122.99 118.85,-211.17 78.697,-251.32"/>
<polygon fill="#000000" stroke="#000000" points="75.9332,-249.134 71.337,-258.68 80.883,-254.0838 75.9332,-249.134"/>
</g>
</g>
</svg>
