<?xml version="1.0" encoding="UTF-8" standalone="no"?>
<!DOCTYPE svg PUBLIC "-//W3C//DTD SVG 1.1//EN"
 "http://www.w3.org/Graphics/SVG/1.1/DTD/svg11.dtd">
<!-- Generated by graphviz version 2.40.1 (20161225.0304)
 -->
<!-- Title: G Pages: 1 -->
<svg width="947pt" height="346pt"
 viewBox="0.00 0.00 946.89 346.00" xmlns="http://www.w3.org/2000/svg" xmlns:xlink="http://www.w3.org/1999/xlink">
<g id="graph0" class="graph" transform="scale(1 1) rotate(0) translate(4 342)">
<title>G</title>
<polygon fill="#ffffff" stroke="transparent" points="-4,4 -4,-342 942.8889,-342 942.8889,4 -4,4"/>
<!-- 0 -->
<g id="node1" class="node">
<title>0</title>
<ellipse fill="#000000" stroke="#000000" cx="395.7095" cy="-317" rx="21.5" ry="21.5"/>
<text text-anchor="middle" x="395.7095" y="-312.6" font-family="Helvetica,sans-Serif" font-size="18.00" fill="#ffffff">4</text>
</g>
<!-- 1 -->
<g id="node2" class="node">
<title>1</title>
<ellipse fill="#000000" stroke="#000000" cx="210.7095" cy="-238" rx="21.5" ry="21.5"/>
<text text-anchor="middle" x="210.7095" y="-233.6" font-family="Helvetica,sans-Serif" font-size="18.00" fill="#ffffff">2</text>
</g>
<!-- 0&#45;&gt;1 -->
<g id="edge1" class="edge">
<title>0&#45;&gt;1</title>
<path fill="none" stroke="#000000" d="M375.9113,-308.5456C343.3105,-294.6242 278.1619,-266.804 240.1444,-250.5695"/>
<polygon fill="#000000" stroke="#000000" points="241.2162,-247.2214 230.645,-246.513 238.4671,-253.6591 241.2162,-247.2214"/>
</g>
<!-- 2 -->
<g id="node9" class="node">
<title>2</title>
<ellipse fill="#ff0000" stroke="#ff0000" cx="663.7095" cy="-238" rx="21.5" ry="21.5"/>
<text text-anchor="middle" x="663.7095" y="-233.6" font-family="Helvetica,sans-Serif" font-size="18.00" fill="#ffffff">7</text>
</g>
<!-- 0&#45;&gt;2 -->
<g id="edge8" class="edge">
<title>0&#45;&gt;2</title>
<path fill="none" stroke="#000000" d="M416.739,-310.801C463.8043,-296.9273 577.8053,-263.3225 632.8942,-247.0836"/>
<polygon fill="#000000" stroke="#000000" points="634.1754,-250.3549 642.7777,-244.1702 632.1961,-243.6406 634.1754,-250.3549"/>
</g>
<!-- 3 -->
<g id="node3" class="node">
<title>3</title>
<ellipse fill="#ff0000" stroke="#ff0000" cx="145.7095" cy="-159" rx="21.5" ry="21.5"/>
<text text-anchor="middle" x="145.7095" y="-154.6" font-family="Helvetica,sans-Serif" font-size="18.00" fill="#ffffff">1</text>
</g>
<!-- 1&#45;&gt;3 -->
<g id="edge2" class="edge">
<title>1&#45;&gt;3</title>
<path fill="none" stroke="#000000" d="M196.9247,-221.2461C187.9622,-210.3533 176.1193,-195.9596 166.0795,-183.7574"/>
<polygon fill="#000000" stroke="#000000" points="168.5309,-181.2281 159.4745,-175.7297 163.1254,-185.6757 168.5309,-181.2281"/>
</g>
<!-- 4 -->
<g id="node6" class="node">
<title>4</title>
<ellipse fill="#ff0000" stroke="#ff0000" cx="272.7095" cy="-159" rx="21.5" ry="21.5"/>
<text text-anchor="middle" x="272.7095" y="-154.6" font-family="Helvetica,sans-Serif" font-size="18.00" fill="#ffffff">3</text>
</g>
<!-- 1&#45;&gt;4 -->
<g id="edge5" class="edge">
<title>1&#45;&gt;4</title>
<path fill="none" stroke="#000000" d="M224.1626,-220.8582C232.6122,-210.0918 243.655,-196.021 253.0736,-184.02"/>
<polygon fill="#000000" stroke="#000000" points="255.8622,-186.1359 259.2827,-176.1084 250.3555,-181.8142 255.8622,-186.1359"/>
</g>
<!-- null0 -->
<g id="node4" class="node">
<title>null0</title>
<polygon fill="#000000" stroke="#000000" points="55.7095,-91 19.7095,-91 19.7095,-69 55.7095,-69 55.7095,-91"/>
<text text-anchor="middle" x="37.7095" y="-76.9" font-family="Helvetica,sans-Serif" font-size="12.00" fill="#ffffff">nil</text>
</g>
<!-- 3&#45;&gt;null0 -->
<g id="edge3" class="edge">
<title>3&#45;&gt;null0</title>
<path fill="none" stroke="#000000" d="M127.8755,-145.9548C109.6093,-132.5934 81.1253,-111.7578 61.0694,-97.0873"/>
<polygon fill="#000000" stroke="#000000" points="62.9173,-94.1026 52.7797,-91.0236 58.7845,-99.7524 62.9173,-94.1026"/>
</g>
<!-- null1 -->
<g id="node5" class="node">
<title>null1</title>
<polygon fill="#000000" stroke="#000000" points="167.7095,-91 131.7095,-91 131.7095,-69 167.7095,-69 167.7095,-91"/>
<text text-anchor="middle" x="149.7095" y="-76.9" font-family="Helvetica,sans-Serif" font-size="12.00" fill="#ffffff">nil</text>
</g>
<!-- 3&#45;&gt;null1 -->
<g id="edge4" class="edge">
<title>3&#45;&gt;null1</title>
<path fill="none" stroke="#000000" d="M146.8026,-137.4129C147.3716,-126.1745 148.0649,-112.4817 148.6317,-101.2875"/>
<polygon fill="#000000" stroke="#000000" points="152.1368,-101.2737 149.147,-91.1095 145.1457,-100.9197 152.1368,-101.2737"/>
</g>
<!-- null2 -->
<g id="node7" class="node">
<title>null2</title>
<polygon fill="#000000" stroke="#000000" points="286.7095,-91 250.7095,-91 250.7095,-69 286.7095,-69 286.7095,-91"/>
<text text-anchor="middle" x="268.7095" y="-76.9" font-family="Helvetica,sans-Serif" font-size="12.00" fill="#ffffff">nil</text>
</g>
<!-- 4&#45;&gt;null2 -->
<g id="edge6" class="edge">
<title>4&#45;&gt;null2</title>
<path fill="none" stroke="#000000" d="M271.6165,-137.4129C271.0475,-126.1745 270.3542,-112.4817 269.7874,-101.2875"/>
<polygon fill="#000000" stroke="#000000" points="273.2733,-100.9197 269.272,-91.1095 266.2823,-101.2737 273.2733,-100.9197"/>
</g>
<!-- null3 -->
<g id="node8" class="node">
<title>null3</title>
<polygon fill="#000000" stroke="#000000" points="398.7095,-91 362.7095,-91 362.7095,-69 398.7095,-69 398.7095,-91"/>
<text text-anchor="middle" x="380.7095" y="-76.9" font-family="Helvetica,sans-Serif" font-size="12.00" fill="#ffffff">nil</text>
</g>
<!-- 4&#45;&gt;null3 -->
<g id="edge7" class="edge">
<title>4&#45;&gt;null3</title>
<path fill="none" stroke="#000000" d="M290.5435,-145.9548C308.8097,-132.5934 337.2937,-111.7578 357.3497,-97.0873"/>
<polygon fill="#000000" stroke="#000000" points="359.6345,-99.7524 365.6393,-91.0236 355.5018,-94.1026 359.6345,-99.7524"/>
</g>
<!-- 5 -->
<g id="node10" class="node">
<title>5</title>
<ellipse fill="#000000" stroke="#000000" cx="601.7095" cy="-159" rx="21.5" ry="21.5"/>
<text text-anchor="middle" x="601.7095" y="-154.6" font-family="Helvetica,sans-Serif" font-size="18.00" fill="#ffffff">6</text>
</g>
<!-- 2&#45;&gt;5 -->
<g id="edge9" class="edge">
<title>2&#45;&gt;5</title>
<path fill="none" stroke="#000000" d="M650.2565,-220.8582C641.8069,-210.0918 630.764,-196.021 621.3455,-184.02"/>
<polygon fill="#000000" stroke="#000000" points="624.0635,-181.8142 615.1364,-176.1084 618.5569,-186.1359 624.0635,-181.8142"/>
</g>
<!-- 6 -->
<g id="node13" class="node">
<title>6</title>
<ellipse fill="#000000" stroke="#000000" cx="728.7095" cy="-159" rx="21.5" ry="21.5"/>
<text text-anchor="middle" x="728.7095" y="-154.6" font-family="Helvetica,sans-Serif" font-size="18.00" fill="#ffffff">10</text>
</g>
<!-- 2&#45;&gt;6 -->
<g id="edge12" class="edge">
<title>2&#45;&gt;6</title>
<path fill="none" stroke="#000000" d="M677.4944,-221.2461C686.4568,-210.3533 698.2997,-195.9596 708.3396,-183.7574"/>
<polygon fill="#000000" stroke="#000000" points="711.2936,-185.6757 714.9446,-175.7297 705.8881,-181.2281 711.2936,-185.6757"/>
</g>
<!-- null4 -->
<g id="node11" class="node">
<title>null4</title>
<polygon fill="#000000" stroke="#000000" points="511.7095,-91 475.7095,-91 475.7095,-69 511.7095,-69 511.7095,-91"/>
<text text-anchor="middle" x="493.7095" y="-76.9" font-family="Helvetica,sans-Serif" font-size="12.00" fill="#ffffff">nil</text>
</g>
<!-- 5&#45;&gt;null4 -->
<g id="edge10" class="edge">
<title>5&#45;&gt;null4</title>
<path fill="none" stroke="#000000" d="M583.8755,-145.9548C565.6093,-132.5934 537.1253,-111.7578 517.0694,-97.0873"/>
<polygon fill="#000000" stroke="#000000" points="518.9173,-94.1026 508.7797,-91.0236 514.7845,-99.7524 518.9173,-94.1026"/>
</g>
<!-- null5 -->
<g id="node12" class="node">
<title>null5</title>
<polygon fill="#000000" stroke="#000000" points="623.7095,-91 587.7095,-91 587.7095,-69 623.7095,-69 623.7095,-91"/>
<text text-anchor="middle" x="605.7095" y="-76.9" font-family="Helvetica,sans-Serif" font-size="12.00" fill="#ffffff">nil</text>
</g>
<!-- 5&#45;&gt;null5 -->
<g id="edge11" class="edge">
<title>5&#45;&gt;null5</title>
<path fill="none" stroke="#000000" d="M602.8026,-137.4129C603.3716,-126.1745 604.0649,-112.4817 604.6317,-101.2875"/>
<polygon fill="#000000" stroke="#000000" points="608.1368,-101.2737 605.147,-91.1095 601.1457,-100.9197 608.1368,-101.2737"/>
</g>
<!-- null6 -->
<g id="node14" class="node">
<title>null6</title>
<polygon fill="#000000" stroke="#000000" points="742.7095,-91 706.7095,-91 706.7095,-69 742.7095,-69 742.7095,-91"/>
<text text-anchor="middle" x="724.7095" y="-76.9" font-family="Helvetica,sans-Serif" font-size="12.00" fill="#ffffff">nil</text>
</g>
<!-- 6&#45;&gt;null6 -->
<g id="edge13" class="edge">
<title>6&#45;&gt;null6</title>
<path fill="none" stroke="#000000" d="M727.6165,-137.4129C727.0475,-126.1745 726.3542,-112.4817 725.7874,-101.2875"/>
<polygon fill="#000000" stroke="#000000" points="729.2733,-100.9197 725.272,-91.1095 722.2823,-101.2737 729.2733,-100.9197"/>
</g>
<!-- 14 -->
<g id="node15" class="node">
<title>14</title>
<ellipse fill="#ff0000" stroke="#ff0000" cx="844.7095" cy="-80" rx="21.5" ry="21.5"/>
<text text-anchor="middle" x="844.7095" y="-75.6" font-family="Helvetica,sans-Serif" font-size="18.00" fill="#ffffff">23</text>
</g>
<!-- 6&#45;&gt;14 -->
<g id="edge14" class="edge">
<title>6&#45;&gt;14</title>
<path fill="none" stroke="#000000" d="M746.5803,-146.8294C765.6833,-133.8196 796.178,-113.0516 818.1045,-98.1189"/>
<polygon fill="#000000" stroke="#000000" points="820.3322,-100.8365 826.6273,-92.3146 816.3919,-95.0507 820.3322,-100.8365"/>
</g>
<!-- null7 -->
<g id="node16" class="node">
<title>null7</title>
<polygon fill="#000000" stroke="#000000" points="806.7095,-22 770.7095,-22 770.7095,0 806.7095,0 806.7095,-22"/>
<text text-anchor="middle" x="788.7095" y="-7.9" font-family="Helvetica,sans-Serif" font-size="12.00" fill="#ffffff">nil</text>
</g>
<!-- 14&#45;&gt;null7 -->
<g id="edge15" class="edge">
<title>14&#45;&gt;null7</title>
<path fill="none" stroke="#000000" d="M831.1535,-63.297C823.061,-53.326 812.7519,-40.6237 804.3203,-30.2347"/>
<polygon fill="#000000" stroke="#000000" points="806.7885,-27.7217 797.7691,-22.1627 801.3533,-32.1329 806.7885,-27.7217"/>
</g>
<!-- null8 -->
<g id="node17" class="node">
<title>null8</title>
<polygon fill="#000000" stroke="#000000" points="919.7095,-22 883.7095,-22 883.7095,0 919.7095,0 919.7095,-22"/>
<text text-anchor="middle" x="901.7095" y="-7.9" font-family="Helvetica,sans-Serif" font-size="12.00" fill="#ffffff">nil</text>
</g>
<!-- 14&#45;&gt;null8 -->
<g id="edge16" class="edge">
<title>14&#45;&gt;null8</title>
<path fill="none" stroke="#000000" d="M858.5076,-63.297C866.827,-53.2262 877.4479,-40.3694 886.0769,-29.9237"/>
<polygon fill="#000000" stroke="#000000" points="888.8177,-32.1015 892.4881,-22.1627 883.4209,-27.6433 888.8177,-32.1015"/>
</g>
</g>
</svg>
